<?xml version="1.0" encoding="utf-8"?>
<!-- Generator: Adobe Illustrator 26.0.3, SVG Export Plug-In . SVG Version: 6.00 Build 0)  -->
<svg version="1.0" id="katman_1" xmlns="http://www.w3.org/2000/svg" xmlns:xlink="http://www.w3.org/1999/xlink" x="0px" y="0px"
	 viewBox="0 0 600 450" style="enable-background:new 0 0 600 450;" xml:space="preserve">
<style type="text/css">
	
		.st0{clip-path:url(#SVGID_00000183208627534966448720000000933147441761033616_);fill-rule:evenodd;clip-rule:evenodd;fill:#7A5D49;}
</style>
<g>
	<g>
		<defs>
			<rect id="SVGID_1_" x="50" y="162.5" width="499" height="125.9"/>
		</defs>
		<clipPath id="SVGID_00000018949864317725498610000011649520084450243480_">
			<use xlink:href="#SVGID_1_"  style="overflow:visible;"/>
		</clipPath>
		
			<path style="clip-path:url(#SVGID_00000018949864317725498610000011649520084450243480_);fill-rule:evenodd;clip-rule:evenodd;fill:#7A5D49;" d="
			M221.8,207.9l-5.3-0.5v-27.6l0.2-0.4l0.4,0l5.4-0.5c10.1,0,15.7,5.1,15.7,14.4C238.1,200.6,233,207.9,221.8,207.9 M250.8,233.2
			c-2.7-3.1-5.6-7.4-9.9-13.9l-7.3-10.9l0.5-0.1c7.9-2.3,12.9-8.4,12.9-15.5c0-3.8-1.5-16.1-21.1-16.1l-8.1,0.1l-4.4,0.1l-12.1-0.2
			c0,0-1.1,0-1.6,0v1.6c4.8,0.1,8.5,0.3,8.5,7.1v47.2c0,2.1-0.6,3.7-1.8,4.9c-1.4,1.3-3.6,1.9-6.7,1.8v1.6l13.1-0.2l12.2,0.2v-1.6
			c-4.8-0.1-8.5-0.3-8.5-7.1v-22h9.1l3.6,5.8c5.4,8.6,10.9,17.4,17.5,24.9l7.9-0.2c0,0,6,0.2,6.6,0.2v-1.7
			C256.4,239,253.5,236.3,250.8,233.2 M382.8,175.3v1.6c0.3,0,0.5,0,0.5,0c3.1,0.1,6.5,0.3,6.5,4.6c0,2.4-1.1,5.5-2.1,8.3l-0.8,2.4
			l-4.2,11.4l-2.6,6.7l-7.5,19.4L360,197.1l-1-2.6c-1.8-4.5-4.9-12.1-4.9-14.6c0-1.5,1.1-2.5,2.7-2.6l2.7-0.2c0,0,0.5,0,0.9-0.1
			v-1.6l-5.5,0.1l-5.9,0.1l-12.7-0.2v1.7c5.8,0.1,7.6,1.9,9.7,7.6l4.5,11.3l2.7,6.7c0,0,15.2,37.8,15.4,38.3h2.9
			c1-2.6,17.6-44.3,17.6-44.3c2.8-7,6-15.1,6.4-15.9c1.5-2.5,3.4-3.6,6.2-3.7v-1.7c-0.3,0-8.3,0.2-8.3,0.2S383.4,175.3,382.8,175.3
			 M519.8,237.5c-4.1,0.4-8.2,0.5-12.4,0.2c-2.6-0.3-5.9-1.2-5.9-5.6v-48.1c0-5.4,3.4-5.4,6.7-5.4h1.9v-2l-12.8,0.4l-12.7-0.3v2h0.9
			c2.4,0,7.4,0,7.4,5.7v47.8c0,6.6-4.8,6.6-7.4,6.6h-0.9v2l21.6-0.4l24.2,0.4l1.4-6.2c0,0,1.7-8,1.9-8.9h-1.9
			c-0.5,1.9-1.3,4.5-2.9,6.5C527,235.1,523.5,237.1,519.8,237.5 M290.2,213.3l10-26l0.4-0.9l10.5,26.9H290.2z M327.3,231.7
			l-4.4-11.3l-2.7-6.8l-15.4-38.3h-2.9l-16.9,42.4c-0.1,0.2-6.5,16.6-7.1,17.7c-1.5,2.5-3.4,3.6-6.2,3.7v1.7c0.7,0,8.3-0.2,8.3-0.2
			s9.8,0.2,10.6,0.2v-1.6c-0.2,0-0.3,0-0.5,0c-3.1-0.1-6.5-0.3-6.5-4.6c0-2.4,1.1-5.5,2.1-8.3l0.8-2.4l2.6-7.3h23.3c0,0,1,2.6,1,2.7
			l1.1,2.6c1.9,4.5,4.9,12.1,4.9,14.6c0,1.5-1.1,2.5-2.8,2.6l-2.6,0.2l-1,0.1v1.6c0.7,0,11.4-0.2,11.4-0.2s12,0.2,12.7,0.2v-1.7
			C331.2,239.1,329.4,237.3,327.3,231.7L327.3,231.7z M424.7,213c0.9-2.3,9.8-25.4,9.8-25.4l9.9,25.4H424.7z M461.2,231.7l-4.5-11.4
			l-2.7-6.7c0,0-15.2-37.8-15.4-38.3h-2.9l-17.5,44c-2.8,7.1-6.1,15.3-6.5,16.1c-1.5,2.5-3.4,3.6-6.2,3.7v1.7c0.7,0,8.3-0.2,8.3-0.2
			s9.8,0.2,10.6,0.2v-1.6c-0.3,0-0.5,0-0.5,0c-3.1-0.1-6.5-0.3-6.5-4.6c0-2.4,1.1-5.5,2.1-8.3l0.8-2.4l2.6-7.3h23.3
			c0,0,1,2.6,1.1,2.7l1.1,2.7c1.8,4.5,4.9,12,4.9,14.5c0,1.5-1.1,2.5-2.8,2.6l-2.7,0.2l-1,0.1v1.7l11.4-0.2l12.7,0.2v-1.7
			C465.1,239.1,463.4,237.3,461.2,231.7L461.2,231.7z M127.8,229.8l-0.5-14.6l-0.7-29.8c0-3.1,0.6-4.9,1.9-5.9
			c1.2-0.9,3.3-1.1,6.4-1.2v-1.6c-0.6,0-7.8,0.2-7.8,0.2l-7.4-0.2c-5.1,11.7-10.9,23.4-16.5,34.7l-8.5,17.3l-0.4,0.7
			c0,0-25.1-52.3-25.3-52.7l-5.7,0.2l-9.5-0.2v1.7c3.1,0,5.1,0.5,6.3,1.5c1.3,1.1,1.9,3.2,1.9,6.7l-0.6,26.7l-0.4,11.5
			c-0.4,12-4,14.4-11.1,14.4v1.6l12-0.2l11.1,0.2v-1.6c-3.4,0-5.8-0.3-7.4-1.7c-1.5-1.3-2.1-3.7-2.1-8.7l0.1-5.9l0.8-33.7l0.9-0.2
			l3.5,7.1c7.5,14.8,15.2,30.2,22,45.5h1.3c0.5-1.4,3.6-9,3.6-9l22-45.6l0.9,0.2l0.7,44.4c0,3.7-0.8,5.6-2.6,6.7
			c-1.6,0.8-3.9,0.9-7,0.9v1.6c0.3,0,13.2-0.2,13.2-0.2s14.2,0.2,14.9,0.2v-1.6C128.6,239.1,128,236.7,127.8,229.8 M171.5,179.1h0.2
			c0.1,0.3,0.1,0.7,0.2,1h-0.2c0,0.1,0,0.1,0,0.2h-0.2C171.5,179.9,171.5,179.5,171.5,179.1L171.5,179.1z M180.8,162.6
			c0.4,1.2,1.2,0.4,1.3,2.2c-0.6-0.1,0.8,0.8,0.2,0.7c-0.1,0.2,0.2,0.4,0.1,0.3c0.1,0.2,0.1,0.5,0.2,0.7c0.1,0.5-0.2,0.1,0,0.6
			c0,0.3,0,0.1,0,0.4c-0.2,0,0.1,0.5-0.1,0.5c-0.8,0-0.6,0.3-0.3,0.6c0.2,0.2,0,0.6-0.5,1.6c0.1,0.4-0.3,0.5-0.1,0.8
			c-0.4-0.1-0.3,0.1-0.7,0.4c0,0.1-0.2,0.3-0.2,0.4c-0.3,0.3-0.5-0.4-0.5,0.1c0.8,0.6-0.1-0.1,0.1,1.3c-0.2-0.1-0.5,0.4-0.6,0.3
			c-0.1,0.3-0.7,0.4-0.7,0.7c-0.1,0-1,1.5-1.1,1.5c-0.1,0.7-0.2-0.3-0.4,0.3c-0.2,0.8,0.1-0.1-0.3,0.4c-0.3-0.1,0.1-0.2-0.2-0.3
			c0.1,0.2,0.1,0.4-0.1,0.4c0,0.1-0.3-0.3-0.4,0c-0.3,0-0.3-0.2-0.3,0c0.7,0,0.1,0.2,0.1,0.4c-0.1,0.5-0.1-0.1-0.2,0.4
			c0.2,0.1-0.5-0.1-0.3-0.1c0,0.2-0.4,0.3-0.4,0.4c-1.8,0.1-0.1,1.6-0.6,0.1c-0.1,0,0.2,0.1,0.1,0.1c0.1,0.8-0.1-0.1,0.1,0.5
			c-0.2-0.1-0.2,0.6-0.4,0.5c0,0.1-0.2,0.1-0.2,0.2c-0.1,0-0.4,0.1-0.5,0.1c0,0.2,0.2,0.3,0.2,0.5c-0.1,0-0.7-0.1-0.7-0.1
			c0,0.1-0.3,0-0.3,0.1c-0.1,0-0.7,0.1-0.7,0.1c0,0.5-0.2,0-0.2,0.6c-0.2,0.5-1.1,0.9-1.1,1.1c-0.2-0.1-0.6,0.6-1.2,0.4
			c0-0.3-0.3-0.3-0.3-0.7c0.1,0,0.2-1.1,0.2-1.2c0-0.1,0.2-0.3,0.2-0.4c0.1,0-0.1-0.3-0.1-0.3c0-0.2,0.2,0.1,0.2-0.1
			c0.1,0-0.1-0.3-0.1-0.3c0.2-2.1,0-0.7,0.2-0.5c0.1-0.2-0.1,0.1,0-0.1c0.1,0-0.1-0.1,0-0.1c0-0.1,0-0.1,0-0.1
			c0.2,0.1-0.2-0.3-0.1-0.2c0-0.2-0.2-0.2-0.2-0.4c0.1,0,0.3-0.5,0.4-0.5c-0.1-0.6,0.2-0.1,0.1-0.7c-0.1,0,0.2-0.2,0.1-0.2
			c0-0.1-0.1,0.1-0.1,0c-0.1,0,0.2-0.2,0.2-0.2c0-0.2,0-0.4-0.1-0.4c0-0.3,1.9-9.5,1.9-10.4c0.3-0.2,0.1-0.6,0.5-1.2
			c0.2-0.3,0.3-0.4,0.3-0.5c0.2-0.2,0.5-0.3,0.7-0.4h1.4c0.4-0.3,0.9-0.2,1-0.4c0.5,0,1.9-0.2,1.7-0.1H180.8z M153.2,279.2
			c-0.2-0.1,0.9,1,0.6,1c0-0.2,0-0.3,0-0.5c0.2-0.1,0.3-0.1,0.5-0.2v0.3c0.1,0,0.1,0,0.2,0C154.5,280,153.2,279.1,153.2,279.2
			L153.2,279.2z M152.9,279.4c0.1-0.5,0.1-0.5,0.3-0.9h0.2l-0.2-0.9h0.2c0,0.1,0,0.1,0,0.2h0.2c0,0.3,0,0.7,0,1
			c-0.2,0.2-0.1,0-0.1,0.3C153.3,279.3,153.1,279.3,152.9,279.4L152.9,279.4z M154.7,273.8c0.1,0,0.2,0,0.3,0c0,0.1,0,0.2,0,0.3
			c0.6,0.3,1,0.7,1.1,1.7H156v-0.2c-0.3-0.3-0.4-0.6-0.6-1c-0.4,0.1-0.4,0.2-0.7,0.4v-0.3c0,0,0.1,0,0.1,0
			C154.9,274.3,154.8,274,154.7,273.8L154.7,273.8z M160.7,257.5c0.2-0.1,0,0,0.2-0.2c0.2,0,0.3,0,0.5,0c-0.1,0.3-0.2,0.7-0.3,1
			c-0.2-0.1,0,0-0.2-0.2c-0.1,0-0.1,0-0.2,0L160.7,257.5z M161.5,256.1c0.2,0,0.3,0.4,0.3,0.5C161.6,256.6,161.7,256.5,161.5,256.1
			L161.5,256.1z M162.6,253.1c-0.1,0-0.2,0-0.3,0c-0.1-0.7,0-0.5,0.1-1.2h0.2c0,0.3-0.2,0.5-0.2,0.8
			C162.6,253,162.5,252.8,162.6,253.1L162.6,253.1z M162.3,251.3c0.1,0.4,0.3,0.9,0.4,1.4c0.2-0.2,0.1,0,0.2-0.3
			c0.1-0.1-0.8,0-0.9-0.3c-0.1,0,1,0,0.9,0C162.7,251.6,162.6,251.5,162.3,251.3L162.3,251.3z M161.9,250.1l0.2,1
			c0.3-0.1,0.3-0.3,0.6-0.4C162.7,250.1,162.7,250.1,161.9,250.1L161.9,250.1z M162.9,250c-0.2,0-0.3,0-0.5,0c0-0.3,0.1-0.7,0.1-1
			h0.2C162.7,249.4,162.8,249.7,162.9,250L162.9,250z M162.9,248.9c0.1,0-0.9,0-0.7,0c-0.1-0.2,0.9-0.3,0.9-0.5c-0.1,0-0.1,0-0.2,0
			C162.9,248.5,162.9,248.7,162.9,248.9L162.9,248.9z M164.9,238.3c0.1,0,0.2,0,0.3,0c0,0.2,0,0.5,0,0.7c0.2,0.1,0.3,0.1,0.5,0.2
			c0,0.1,0,0.1,0,0.2c0.2,0-0.6,0-0.4,0c-0.1-0.5,0.8-0.9,0.7-1.4c-0.4-0.1-0.5-0.3-1-0.3c-0.1,0.2,0,0-0.2,0.2L164.9,238.3
			L164.9,238.3z M176.7,199.9l-0.3,0c-0.1-0.4,0.9-0.8,0.9-1.2h0.2c0.1,0.2-0.4,0.5-0.6,0.8c-0.1,0-0.1,0-0.2,0
			C176.6,199.7,176.7,199.8,176.7,199.9L176.7,199.9z M165.6,198.1c0.2,0.2,0.3,0.2,0.7,0.3C166.1,198.2,166,198.2,165.6,198.1
			L165.6,198.1z M177.5,194c0.4-0.1,0.4,0,0.7-0.2c0-0.1-1.1-0.1-1.1-0.2c0.2,0,1.4,0,1.6,0v-0.2c-0.3-0.1-0.7-0.2-1-0.1
			c0,0.1-0.4,0.5-0.4,0.5c-0.1,0,0.2-0.3,0.1-0.3C177.4,193.7,177.4,193.8,177.5,194L177.5,194z M179.1,191.1c0,0.2,0.2,0.4,0.2,0.6
			c0.3,0,0.3,0.2,0.7,0.2c0-0.2,0-0.3,0-0.5C179.7,191.3,179.5,191.1,179.1,191.1L179.1,191.1z M169.8,186.7c0,0.2,0,0.3,0,0.5
			c0.2,0.1,0.2,0.1,0.3,0.3c0.2-0.1,0.4-0.1,0.7-0.2V187L169.8,186.7z M163.6,214.9c-1.1,3.6,0.9-5,0.7-5.8c0-0.6,0.3-1.9,0.5-1.9
			c0-0.1,0-0.1,0-0.2c-0.3-0.2,0.3-0.3,0.6-0.7c-0.4-0.4-0.8-1.2-1.1-1.7c0.3,0,0.7,0,1,0c0.1,0.2,0.3,0.2,0.5,0.3
			c0-0.1,0-0.3,0-0.3h-0.2c0-0.1,0-0.2,0-0.3l-0.3-0.2v-0.3h-0.2c-0.1-0.3,0.1-0.5,0.2-0.7h-0.2v-0.2c0.2,0,0.5,0,0.7,0
			c0-0.6,0-1.2,0-1.9c0,0-0.4-0.3-0.5-0.5l0.8,0v-0.2c-0.3-0.1-0.5-0.4-0.7-0.7h0.4c0.1,0.2,0.3,0.2,0.5,0.3c0-0.3,0-0.6,0-0.9
			c-0.3-0.7-0.4-1.9-0.2-1.9v-0.2c-0.2-0.2,0.2-0.3,0.3-0.2c0-0.7,0.1-1.3,0.3-1.9h0.2c0-0.1,0-0.2,0-0.3c0.1,0,0.1,0,0.2,0
			c-0.1-0.7-0.1-1.3-0.2-2h0.3c0.1,0.2,0.1,0.3,0.2,0.5c0.1,0,0.1,0,0.2,0c0-0.2,0-0.3,0-0.5c-0.2-0.1-0.3-0.3-0.4-0.5
			c0.2,0,0.3,0,0.5,0c0.1,0.1-0.9,0.2-0.9,0.3c0.3,0.1,1.1-0.3,1.3-0.4v-0.2c-0.6,0-0.8-0.1-1.2-0.1c0-0.1,0-0.2,0-0.4
			c0.2-0.1,0.5-0.1,0.7-0.2c-0.1-0.2-0.1-0.3-0.2-0.5c-0.4,0.3,0.2,0.1-0.5,0.2c1.1-1.1,0.3-0.8,0.3-1.2c0.3-0.2,0.6-0.5,0.8-0.8
			c0-0.4,0-0.8,0-1.2c0.4-0.1,0.6-0.2,1.2-0.2c0-0.8,0.3-0.6,0.6-1.3c0.1,0,0.1-0.1,0.1-0.1c0,0.4-0.1-0.2-0.1,0.2h0.2v0.2
			c0.2,0,0.3,0,0.5,0c0.3-0.7,0.9-1,1.7-0.7c0.1-0.3,0.1-0.7,0.1-1c0.1,0,0.2,0,0.3,0c0.1,0.5,2.4,0.7,2.9,0.8v0.2h0.2
			c0-0.1,0-0.1,0-0.2c0.4-0.3-0.2,0.2-0.3-0.4c1.8-0.2,4.2,1,3.2,1.1c0.3,1.2,1.5-0.3,1.7,0.9H180c-0.2-0.3-0.4-0.3-0.8-0.3
			c0.1,0.5,1.4,0.6,1.4,1.3c-0.5-0.1-0.4,0.4-0.6,0.1c0.2,0-1-0.6-0.8-0.6v-0.2c-0.2,0,1.1,0.5,0.9,0.5c-0.9,1.3,0.1,2.1-0.4,0.4
			c0.5,0.1,0.5,0.1,0.5,0.7h-0.2c0,0.1,0.1,0.7,0.1,0.7c0,0.4-0.3,0.2-0.3,0.6c-0.1,0,0.2,0.4,0.2,0.4c0.1,0.2-0.5,0.2-0.2,0.5
			c-0.1,0.3-0.2,0.2-0.1,0.4c-0.2,0-0.7,0.9-0.9,0.9c-0.1,0.9,0.2,0.5,0.1,1.3c0.3,0.1-0.2,0.1,0.2,0.2c0,0.1-0.5,0.3-0.5,0.4
			c-0.1,0,0.2,0,0,0c0,0.3,0,0-0.1,0.4c0.1,0,0.3,0.2,0.3,0.2c0,0.1-0.6,0.1-0.6,0.2c0.2,0-0.3,0.2-0.3,0.3
			c-0.3-0.1-0.4,0.7-0.7,0.7c0.4,0.9,0.6,0.5,0.3,1.1c-0.6-0.2,0,0.4,0.1,0.6h-0.2c0-0.2,0.3,0,0.3-0.2c-0.8-0.1,0.4,0.5-0.2,0.7
			c0.2,0.2-0.3-0.3,0-0.2c0.3,0.3-0.2,0.1-0.2,0.2c-0.7,0,0.4,0.4-0.1,0.2c0,0.8-0.4,0.8-1.2,1.9c-0.1,0,0,0.6-0.1,0.6
			c0,0.1-0.1,0.4-0.1,0.5c-0.1,0-0.6,0.7-0.4,0.9c0.1,0.2,0.1,0.1,0.2,0.3c-0.1,0.1-0.1-0.1,0-0.1c0.1,0.2-0.1-0.5,0-0.3
			c-0.2-0.1-0.5,1.2-0.5,1.2c0,0.3-0.5,1.8-0.7,1.7c0,0.1-0.3,0.7-0.3,0.7c0.2,0.1-0.2,0.3,0,0.5c-1.8,0.3,1.1-0.2-0.5,2.1
			c0.1,0.5-0.6,0.5-0.3,0.8c0.1,0-0.1,0.6-0.1,0.6c0.1,0.3,0.1,0.2,0.2,0.5c0,0,0.3,0,0.2,0.3h-0.2c-0.2,0.7,0.6,0.6-0.3,0.5
			c-0.2-0.4,0.6-0.5,0-0.7l0,0.2c0.4,0.2-0.5,0.6-0.4,1.2c0.8-0.1-0.3,0.5-0.2,0.3c-0.2,0-0.5,0.4-0.5,1.1c0.3-0.1-0.3,0.9-0.3,1
			c-0.1,0.1,0.2,0.4,0.1,0.5c-0.1,0.2-0.1,0.5-0.1,0.7l-0.2,0c-0.2,0.7-0.3,0.8-0.8,1.3c-0.2,0.3,0.1,0.7-0.2,0.9
			c0.2,0.2,0,0.1,0.2,0.4c-0.1,0,0.1,0,0,0c0,0.1,0-0.1,0,0c-0.3,0,0.1,0.3-0.3,0.3c0,0.1-0.1,0.2-0.1,0.2c0.2,0-0.2,0.3,0,0.3
			c0,0.2,0.1,0.5,0.1,0.7c-0.1,0.2,0.2,0,0.1,0.3c0.2,0.1-0.6,0-0.5,0.2c-0.2,0,0.9,0.3,0.7,0.3c-0.2-0.2-0.1,0.3-0.4,0.2
			c0.1,0.2,0.2,0,0.3,0.2c-0.3-0.2,0.1,0,0.2,0c0,0.1-0.5-0.1-0.5,0c0.1,0.1-0.3,0.2-0.1,0.3c0,0.1-0.1,0.4-0.1,0.5
			c0.1,0.1-0.5,0.7-0.4,0.7c0.4,0.5,0.1,0.4,0.2,1.3c-0.2,0.1,0.1,0.1-0.3,0.1c-0.1-0.2,0.6-0.2,0.4-0.3c0,0.1,0,0.2,0,0.3h0.2
			c-0.9,0.3-1.1,2.4-1.7,2.2h-0.2c0,0.5,0,0.9,0,1.4c1,0-0.9,0.3-0.1,0.5c0-0.1,0-0.2,0-0.3c-0.1-0.1,0.6-0.1,0.7-0.5
			c0.1,0-1,0-0.9,0l0.2-0.5h0.3c0.3,0.5,0.1,0.8,0.1,1.7c-0.1,0.1-0.6,1.1-0.5,1.4h0.2v0.2c0.2,0,0.3,0,0.5,0
			c-0.4,0.1-0.4,0.1-0.4,0.3c-0.2,0,0,0.1-0.2,0.1c0,0.1,0,0.1,0,0.2c0.1,0,0.1,0,0.2,0c0,0.1,0,0.1,0,0.2c0.2,0-0.2,0.4-0.6,0.1
			c0-0.3,0-0.6,0-0.9c-0.3,0.1,0.5,0.1,0.3,0.2l0,0.7c-0.2,0-0.5,0-0.7,0c-0.1,0.2-0.2,0.3-0.3,0.5c1,0,0.7,0,1.2,0.5
			c0.1,0.1-0.7,0.4-0.7,0.5c0.1,0.1,0.2,0.1,0.3,0.2c0,0,0,0.1,0,0.1c0.2,0,0.3,0.2,0.2,0.2c0,0.2-0.3,1.4-0.4,1.5
			c-0.1,0-0.4,0.4-0.5,2.2c-0.1,0,0.2,0.4,0.1,0.4c0-0.1,0-0.2,0-0.3c-0.4-0.2-0.5-0.5-1-0.6c0,0.2,1.1,0.3,1.1,0.5l-0.2,0v0.2l-1,0
			c-0.1-0.3,0.9-0.7,0.9-1c-0.4,0.1-2.1,0.1-0.3-0.2c0-0.2,0-0.3,0-0.5c-0.5-0.1,0-0.6-0.1-1.2h0.9c0-0.2,0.1,0.7,0.1,0.5
			c0.1,0.8-0.3,0.7-0.5,0.7c0,0.5-0.3,0.3-0.3,0.8c-0.1,0-0.1-1-0.1-1c-0.3,0.9-0.3,1.2-0.1,2.1c0.3,0.1-0.4,0.7-0.3,1
			c0,0.1,0,0.2,0,0.3c0.5-0.1-0.5-0.3-0.1-0.5l0,0.3c-0.2,0.2-0.8,0.4-0.6,0.5c0.1,0.2,0.7,1.4,0.6,1.4c-0.2-0.4,0.5-0.7,0.2-0.5
			c-0.2,0.2-0.1,0-0.1,0.3c0.2,0.1-0.1,0.8-0.3,0.5h-0.2c0,0.1,0,0.2,0,0.3c-0.4,0.4,0.2,0-0.1,0.2h-0.2c0,0.2-0.9,0.5-0.9,0.7
			c0.8,0.5-1,1.5-0.9,1.5c0.1,0.2,0.2,0.7,0.4,0.9c0.1,0,0.2,0,0.3,0v0.2c0.2,0,0.2,0.2,0,0.2c0,0.2-0.6,0.9-1.1,0.9
			c0.1,0.6,0.3,0.7,0.4,1.2l-0.2,0v-0.2c-0.2-0.3-0.2,0.3-0.2,0.3c0.3,0.2,0.3,0.2,0.4,0.7c-0.6-0.2-0.9-0.2-0.8,0.7
			c0.4,0.3-0.7,0.7-0.7,1.4c-0.2,0.1,0,0-0.2,0.2c-0.2,0,0.7,0,0.6,0c0.1,0.6-0.8,1.2-0.7,1.9h0.2v0.2c-0.1,0-0.2,0-0.3,0
			c0.1,0.2,0.1,0.3,0.2,0.5c-0.3,0.1,0.4,0.1,0.1,0.2c0,1.1,0.3,1.4,0.5,2.2c-0.2,0-0.3,0-0.5,0c-0.1-0.9-0.8-0.2-0.6-1.4
			c-0.2,0,0.7,0,0.6,0v0.2c-0.1,0-0.1,0-0.2,0c0,0.5-0.5,0.7-0.4,1.2c-0.5-0.1,1.2,0.2,1-0.3c-0.2-0.2-0.3-0.3-0.3-0.7
			c-0.2,0-0.3,0-0.5,0c-0.2,0.2,0.7,0.5,0.6,0.7c-0.1,0-0.1,0-0.2,0c0,0.2-1.2,0.5-1.2,0.7c-0.1,0,0.2,0.1,0.1,0.1
			c-0.3,1.2-0.2,2.5-0.2,3.7h0.2V258c0.5,0-1.8-2.2-1.1-2.2v0.2c0.3,0.3,0.2,1.3,0.2,1.9h-0.1v0.5c-0.1,0-0.2,0-0.3,0
			c0,0.6-0.1,0.8-0.1,1.2c-0.3,0.1-0.3,2.6-0.3,2.7l0.9-0.2h-0.2c0-0.3,0-0.7,0-1h0.2V261l0-0.2c0.1,0,0.1,0,0.2,0
			c0.1-0.2,0.1-0.3,0.1-0.7h0.3c0,0.2-1.8-1.4-1.6-1.3c0-0.1,0-0.2,0-0.3c0.3-0.6,0.9,0,0.2-0.2c-0.1,0.5-0.2,0.8,0.1,1.3h0.2v0.4
			c0.1,0,0.1,0,0.2,0c0.3,0.7,0,1.7-0.1,2.2c-0.5,0.3-0.7,0.6-1.5,0.7c0.2,0.2,0,0.1,0.3,0.2c-2.4-3.6,0.6,4.9,0.5,2.2
			c-0.6-0.1-0.5-0.3-1-0.5c-0.1,0.2,0,0-0.2,0.2c0.4,0.6,0.8,0.5,0.9,1.5c-0.2-0.1-0.3-0.1-0.5-0.2c-0.1-0.3-0.3-0.7-0.4-1
			c-0.1,0-0.1,0-0.2,0c-0.1-0.2,0.9-0.5,0.9-0.7c-0.1-0.1-0.2-0.1-0.3-0.2c0-0.1,0-0.2,0-0.3h-0.2c-0.1-0.2-0.1-0.3-0.2-0.5h-0.2
			c0,0.4-0.3,1.2-0.3,1.4l0.2,0c0,0.1,0,0.2,0,0.3h0.2l0,0.9h-0.2c0,0-0.3-0.6-0.3-0.5v0.2c-0.5,0.6,0.3,1.5,0.4,2
			c0,0.3-1.1,0.7-1.1,1c-0.2,0-0.4,0-0.7,0c-0.1-0.3,1,0.4,0.9,0.1h-0.3c-0.1,0.4-0.1,0.5-0.3,0.7c0.1,0.4,0.2,0.4,0.4,0.7
			c-0.4-0.1-0.5-0.3-0.9,0v0.2c-0.3,0.3-0.3,0.1-0.3,0.7c0.3,0.2,0.3,0.3,0.3,0.8c-0.2-0.1-0.3-0.1-0.5-0.1l-0.1,0.7h-0.3
			c-0.1,0.7-0.5,1.2-0.6,1.7c-0.2,0.8,0.3,2-0.1,2.6c-0.2-0.2,0.8-0.3,0.4-0.3l0.2,0.5h-0.9c0,0.1-0.7-0.7-0.7-0.6
			c0.1,0,0.1,0,0.2,0c0,0.3,1,0.7,0.9,1c-0.3,0-0.7,0-1,0l-0.2,0.5h-0.2c-0.1,0.5-0.2,1.1-0.3,1.5c0.2,0.1,0.3,0.1,0.5,0.2
			c0,0.1,0,0.3,0,0.5c-0.5-0.1-0.4,0-0.5-0.5c-0.1,0-0.2,0-0.3,0c0.1,0.8,0.2,0.6,0.3,1.2c-0.2,0-0.2,0.6-0.4,0.5v0.2H152
			c0,0.2,0,0.3,0,0.5h-0.2c0,0.1,0,0.2,0,0.3h-0.2c0,0.5,0,1,0,1.5c-0.1,0.3-0.3,0.9-0.5,1.2l-0.7-0.1c0-0.3,0-0.7,0-1
			c0.1,0,0.1,0,0.2,0c0-0.1,0-0.2,0-0.3h0.2c0-0.2,0-0.5,0-0.7c0.1,0,0.1,0,0.2,0c0.1-0.7-0.3-0.3-0.5-0.5l0.2-0.5c0,0,0.1,0,0.2,0
			c0,0,0-0.1,0-0.2c0.2,0.1,0.2,0.2,0.3,0.3c0-0.2,0-0.4,0-0.7c0.1,0,0.1,0,0.2,0c-0.1-0.6,0.3-0.9,0.2-1.5c-0.1,0,0.2-2.1,0.5-2
			v-0.2C152.3,277.5,163.5,215.4,163.6,214.9L163.6,214.9z M542.2,236.7c0.8,0,2.1,0.1,2.1-0.9c0-0.7-0.8-0.8-1.5-0.8h-1.7v1.8
			H542.2z M544.9,240H544l-1.6-2.6h-1.3v2.6h-0.6v-5.6h2.5c1.5,0,2,0.5,2,1.5c0,1.1-0.8,1.5-1.8,1.5L544.9,240z M546.9,237.1
			c0-2.5-2-4.5-4.5-4.5c-2.5,0-4.5,2-4.5,4.5c0,2.5,2,4.5,4.5,4.5C544.9,241.6,546.9,239.6,546.9,237.1L546.9,237.1z M537.2,237.1
			c0-2.9,2.3-5.2,5.2-5.2c6.9,0,6.9,10.4,0,10.4C539.5,242.2,537.2,239.9,537.2,237.1L537.2,237.1z M537.2,237.1"/>
	</g>
</g>
</svg>
