<?xml version="1.0" encoding="UTF-8" standalone="no"?>
<!-- Generator: Adobe Illustrator 25.1.0, SVG Export Plug-In . SVG Version: 6.00 Build 0)  -->

<svg
   version="1.1"
   id="layer"
   x="0px"
   y="0px"
   viewBox="0 0 80 80"
   xml:space="preserve"
   sodipodi:docname="kai.svg"
   width="80"
   height="80"
   xmlns:inkscape="http://www.inkscape.org/namespaces/inkscape"
   xmlns:sodipodi="http://sodipodi.sourceforge.net/DTD/sodipodi-0.dtd"
   xmlns="http://www.w3.org/2000/svg"
   xmlns:svg="http://www.w3.org/2000/svg"><defs
   id="defs1" /><sodipodi:namedview
   id="namedview1"
   pagecolor="#ffffff"
   bordercolor="#000000"
   borderopacity="0.25"
   inkscape:showpageshadow="2"
   inkscape:pageopacity="0.0"
   inkscape:pagecheckerboard="0"
   inkscape:deskcolor="#d1d1d1" />
<style
   type="text/css"
   id="style1">
	.st0{fill:#DD7E70;}
</style>
<path
   id="path_3_"
   class="st0"
   d="m 38.224,24.9 c -2.211,0.065 -5.604,0.271 -9.214,0.889 -0.401,0.07 -0.661,0.461 -0.569,0.856 0.049,0.211 0.103,0.423 0.157,0.645 0.255,1.046 1.084,1.924 3.713,1.637 l 0.374,-0.038 c 1.539,-0.168 2.829,-0.379 5.566,-0.45 0.379,-0.011 0.688,-0.32 0.688,-0.699 0,-0.683 0,-1.458 0,-2.141 -0.004,-0.395 -0.324,-0.71 -0.715,-0.699 z" />
<path
   id="path_2_"
   class="st0"
   d="m 28.831,23.653 c 3.761,-0.629 7.198,-0.829 9.415,-0.889 0.385,-0.011 0.688,-0.325 0.688,-0.71 v -2.249 c 0,-0.396 -0.325,-0.716 -0.721,-0.705 -3.463,0.06 -5.046,0.282 -6.428,0.472 -2.737,0.379 -3.751,1.93 -3.783,3.257 0,0.043 0,0.076 -0.005,0.103 -0.012,0.45 0.389,0.797 0.834,0.721 z" />
<path
   id="path_1_"
   class="st0"
   d="m 41.753,22.764 c 2.217,0.065 5.653,0.266 9.415,0.889 0.444,0.076 0.846,-0.271 0.835,-0.721 0,-0.027 0,-0.065 -0.005,-0.103 -0.032,-1.328 -1.041,-2.878 -3.783,-3.257 -1.382,-0.19 -2.965,-0.417 -6.428,-0.472 -0.396,-0.005 -0.721,0.309 -0.721,0.705 v 2.249 c -0.001,0.385 0.303,0.699 0.687,0.71 z" />
<path
   id="multiple"
   class="st0"
   d="M 40.003,0 C 17.909,0 0,17.908 0,40 0,62.092 17.909,80 40.003,80 62.097,80 80,62.092 80,40 80,17.908 62.091,0 40.003,0 Z m -7.757,60.786 1.734,1.653 c 0.401,0.401 0.64,0.911 0.32,1.236 -0.304,0.303 -0.9,0.07 -1.312,-0.341 l -1.642,-1.631 c -0.374,-0.374 -0.591,-0.238 -0.591,0.206 v 1.106 c 0,0.352 -0.163,0.949 -0.688,0.949 -0.526,0 -0.732,-0.596 -0.732,-0.949 V 60.603 58.19 c 0,-0.352 0.201,-0.949 0.732,-0.949 0.526,0 0.688,0.596 0.688,0.949 v 1.106 c 0,0.444 0.217,0.58 0.591,0.206 l 1.642,-1.632 c 0.412,-0.412 1.008,-0.65 1.312,-0.341 0.32,0.32 0.081,0.829 -0.32,1.236 l -1.734,1.653 c -0.054,0.054 -0.081,0.125 -0.081,0.195 0,0.043 0.027,0.119 0.081,0.173 z m 11.735,3.203 c -0.374,0 -0.575,-0.455 -0.753,-0.889 l -1.312,-3.344 c -0.049,-0.108 -0.141,-0.304 -0.336,-0.304 -0.195,0 -0.287,0.195 -0.336,0.304 L 39.932,63.1 c -0.179,0.434 -0.374,0.889 -0.753,0.889 -0.547,0 -0.683,-0.575 -0.547,-1.22 0.119,-0.575 0.542,-1.528 0.921,-2.45 0.336,-0.818 0.916,-2.146 0.916,-2.146 0.222,-0.509 0.58,-1.068 1.111,-1.068 0.531,0 0.889,0.558 1.111,1.068 0,0 0.58,1.322 0.916,2.146 0.374,0.916 0.802,1.87 0.922,2.45 0.13,0.646 0,1.22 -0.548,1.22 z m 6.402,-3.414 v 2.618 c 0,0.423 -0.369,0.846 -0.71,0.846 -0.341,0 -0.71,-0.423 -0.71,-0.846 v -2.618 -2.618 c 0,-0.423 0.369,-0.846 0.71,-0.846 0.341,0 0.71,0.423 0.71,0.846 z M 59.69,41.068 c -0.206,1.041 -2.087,0.439 -2.851,0.206 -3.485,-1.046 -7.448,-3.42 -9.909,-5.615 -0.325,-0.293 -0.856,-0.038 -0.819,0.396 0.282,3.55 0.174,6.114 0.033,8.553 -0.065,1.062 -0.482,2.444 -1.377,2.374 -0.813,-0.06 -0.699,-1.772 -0.699,-2.585 0,-4.108 0.125,-6.818 -0.39,-10.927 -0.136,-1.073 -0.304,-1.637 -0.699,-2.141 -0.395,-0.504 -0.889,-0.764 -1.474,-0.775 -0.374,-0.005 -1.079,-0.011 -1.491,-0.011 -0.412,0 -1.117,0.005 -1.491,0.011 -0.585,0.011 -1.079,0.271 -1.474,0.775 -0.396,0.504 -0.564,1.068 -0.699,2.141 -0.515,4.108 -0.39,6.819 -0.39,10.927 0,0.813 0.114,2.526 -0.699,2.585 -0.894,0.065 -1.312,-1.312 -1.377,-2.374 -0.141,-2.439 -0.249,-5.008 0.033,-8.553 0.033,-0.434 -0.493,-0.688 -0.819,-0.396 -2.466,2.201 -6.423,4.569 -9.908,5.615 -0.764,0.228 -2.645,0.835 -2.851,-0.206 -0.179,-0.894 1.496,-1.252 2.157,-1.528 4.369,-1.837 7.735,-3.913 11.28,-7.691 0.341,-0.363 0.038,-0.954 -0.455,-0.894 -0.434,0.054 -0.759,0.092 -0.759,0.092 -3.594,0.385 -5.458,-1.024 -6.006,-3.252 -0.39,-1.583 -0.726,-2.238 -0.656,-5.019 0.049,-2.103 1.556,-4.753 5.621,-5.317 1.675,-0.233 3.865,-0.51 8.51,-0.51 4.645,0 6.835,0.276 8.51,0.51 4.065,0.564 5.572,3.219 5.621,5.317 0.065,2.78 -0.271,3.436 -0.656,5.019 -0.548,2.228 -2.412,3.632 -6.006,3.252 0,0 -0.325,-0.043 -0.759,-0.092 -0.493,-0.06 -0.791,0.531 -0.455,0.894 3.545,3.778 6.911,5.848 11.28,7.691 0.628,0.276 2.303,0.633 2.124,1.528 z" />
<path
   id="path"
   class="st0"
   d="m 47.694,28.927 c 2.629,0.287 3.453,-0.596 3.713,-1.637 0.054,-0.222 0.108,-0.434 0.157,-0.645 0.092,-0.396 -0.168,-0.791 -0.569,-0.856 -3.61,-0.613 -7.003,-0.819 -9.214,-0.889 -0.39,-0.011 -0.71,0.304 -0.71,0.694 0,0.688 0,1.463 0,2.141 0,0.379 0.309,0.694 0.688,0.699 2.737,0.065 4.027,0.282 5.566,0.45 z" />
</svg>
