<?xml version="1.0" encoding="UTF-8" standalone="no"?>
<svg
   width="77"
   height="22"
   fill="none"
   version="1.1"
   id="svg10"
   sodipodi:docname="omo.svg"
   xmlns:inkscape="http://www.inkscape.org/namespaces/inkscape"
   xmlns:sodipodi="http://sodipodi.sourceforge.net/DTD/sodipodi-0.dtd"
   xmlns="http://www.w3.org/2000/svg"
   xmlns:svg="http://www.w3.org/2000/svg">
  <sodipodi:namedview
     id="namedview10"
     pagecolor="#ffffff"
     bordercolor="#000000"
     borderopacity="0.25"
     inkscape:showpageshadow="2"
     inkscape:pageopacity="0.0"
     inkscape:pagecheckerboard="0"
     inkscape:deskcolor="#d1d1d1" />
  <g
     fill="#231f20"
     clip-path="url(#a)"
     id="g9"
     transform="translate(0,-19)">
    <path
       d="M 27.5,21.488 V 41 h 2.488 V 20.375 Z M 30.512,41 H 33 V 27.447 L 30.512,21.619 Z M 49.5,21.488 V 41 H 47.012 V 20.375 Z M 46.488,41 H 44 V 27.447 l 2.488,-5.828 z m -3.012,-13.75 2.488,-5.827 -7.202,7.071 v 3.47 z m -12.44,-5.827 2.488,5.827 4.714,4.714 v -3.47 z M 46.488,20.113 44,19 38.762,24.238 v 3.47 z M 33,19 l -2.488,1.113 7.726,7.595 v -3.47 z m -22.262,5.5 v -2.488 c -4.19,0.13 -7.53,3.536 -7.66,7.726 H 5.5 C 5.631,26.923 7.923,24.631 10.738,24.5 Z m 0.524,14.012 V 41 C 17.155,40.804 21.869,36.09 22,30.262 h -2.488 a 8.477,8.477 0 0 1 -8.25,8.25 z"
       id="path1" />
    <path
       d="M 10.738,21.488 V 19 C 4.911,19.131 0.196,23.845 0,29.738 h 2.488 a 8.477,8.477 0 0 1 8.25,-8.25 z m -8.25,8.774 H 0 C 0.196,36.089 4.91,40.804 10.738,41 v -2.488 a 8.477,8.477 0 0 1 -8.25,-8.25 z M 19.512,29.738 H 22 A 10.962,10.962 0 0 0 11.262,19 v 2.488 a 8.477,8.477 0 0 1 8.25,8.25 z m -8.25,5.762 v 2.423 c 4.19,-0.131 7.595,-3.47 7.726,-7.661 H 16.5 c -0.13,2.815 -2.423,5.107 -5.238,5.238 z"
       id="path2" />
    <path
       d="M 5.5,30.262 H 3.077 a 7.891,7.891 0 0 0 7.661,7.66 V 35.5 C 7.923,35.369 5.631,33.077 5.5,30.262 Z m 11,-0.524 h 2.488 c -0.13,-4.19 -3.536,-7.595 -7.726,-7.726 V 24.5 c 2.815,0.131 5.107,2.423 5.238,5.238 z M 66.262,24.5 v -2.488 c 4.19,0.13 7.53,3.536 7.726,7.726 H 71.5 C 71.37,26.923 69.077,24.631 66.262,24.5 Z M 65.738,38.512 V 41 A 10.962,10.962 0 0 1 55,30.262 h 2.488 a 8.477,8.477 0 0 0 8.25,8.25 z"
       id="path3" />
    <path
       d="M 66.262,21.488 V 19 A 10.962,10.962 0 0 1 77,29.738 h -2.488 a 8.477,8.477 0 0 0 -8.25,-8.25 z m 8.25,8.774 H 77 A 10.962,10.962 0 0 1 66.262,41 v -2.488 a 8.477,8.477 0 0 0 8.25,-8.25 z M 57.488,29.738 H 55 A 10.962,10.962 0 0 1 65.738,19 v 2.488 a 8.477,8.477 0 0 0 -8.25,8.25 z m 8.25,5.762 v 2.488 c -4.19,-0.196 -7.595,-3.536 -7.726,-7.726 H 60.5 c 0.131,2.815 2.423,5.107 5.238,5.238 z"
       id="path4" />
    <path
       d="m 71.5,30.262 h 2.488 a 8.105,8.105 0 0 1 -7.726,7.726 V 35.5 c 2.815,-0.131 5.107,-2.423 5.238,-5.238 z m -11,-0.524 h -2.488 c 0.131,-4.19 3.536,-7.595 7.726,-7.726 V 24.5 c -2.815,0.131 -5.107,2.423 -5.238,5.238 z m -33,-8.25 V 41 h 2.488 V 20.375 Z M 30.512,41 H 33 V 27.447 L 30.512,21.619 Z M 49.5,21.488 V 41 H 47.012 V 20.375 Z M 46.488,41 H 44 V 27.447 l 2.488,-5.828 z m -3.012,-13.75 2.488,-5.827 -7.202,7.071 v 3.47 z m -12.44,-5.827 2.488,5.827 4.714,4.714 v -3.47 z M 46.488,20.113 44,19 38.762,24.238 v 3.47 z M 33,19 l -2.488,1.113 7.726,7.595 v -3.47 z m -22.262,5.5 v -2.488 c -4.19,0.13 -7.53,3.536 -7.66,7.726 H 5.5 C 5.631,26.923 7.923,24.631 10.738,24.5 Z m 0.524,14.012 V 41 C 17.155,40.804 21.869,36.09 22,30.262 h -2.488 a 8.477,8.477 0 0 1 -8.25,8.25 z"
       id="path5" />
    <path
       d="M 10.738,21.488 V 19 C 4.911,19.131 0.196,23.845 0,29.738 h 2.488 a 8.477,8.477 0 0 1 8.25,-8.25 z m -8.25,8.774 H 0 C 0.196,36.089 4.91,40.804 10.738,41 v -2.488 a 8.477,8.477 0 0 1 -8.25,-8.25 z M 19.512,29.738 H 22 A 10.962,10.962 0 0 0 11.262,19 v 2.488 a 8.477,8.477 0 0 1 8.25,8.25 z m -8.25,5.762 v 2.423 c 4.19,-0.131 7.595,-3.47 7.726,-7.661 H 16.5 c -0.13,2.815 -2.423,5.107 -5.238,5.238 z"
       id="path6" />
    <path
       d="M 5.5,30.262 H 3.077 a 7.891,7.891 0 0 0 7.661,7.66 V 35.5 C 7.923,35.369 5.631,33.077 5.5,30.262 Z m 11,-0.524 h 2.488 c -0.13,-4.19 -3.536,-7.595 -7.726,-7.726 V 24.5 c 2.815,0.131 5.107,2.423 5.238,5.238 z M 66.262,24.5 v -2.488 c 4.19,0.13 7.53,3.536 7.726,7.726 H 71.5 C 71.37,26.923 69.077,24.631 66.262,24.5 Z M 65.738,38.512 V 41 A 10.962,10.962 0 0 1 55,30.262 h 2.488 a 8.477,8.477 0 0 0 8.25,8.25 z"
       id="path7" />
    <path
       d="M 66.262,21.488 V 19 A 10.962,10.962 0 0 1 77,29.738 h -2.488 a 8.477,8.477 0 0 0 -8.25,-8.25 z m 8.25,8.774 H 77 A 10.962,10.962 0 0 1 66.262,41 v -2.488 a 8.477,8.477 0 0 0 8.25,-8.25 z M 57.488,29.738 H 55 A 10.962,10.962 0 0 1 65.738,19 v 2.488 a 8.477,8.477 0 0 0 -8.25,8.25 z m 8.25,5.762 v 2.488 c -4.19,-0.196 -7.595,-3.536 -7.726,-7.726 H 60.5 c 0.131,2.815 2.423,5.107 5.238,5.238 z"
       id="path8" />
    <path
       d="m 71.5,30.262 h 2.488 a 8.105,8.105 0 0 1 -7.726,7.726 V 35.5 c 2.815,-0.131 5.107,-2.423 5.238,-5.238 z m -11,-0.524 h -2.488 c 0.131,-4.19 3.536,-7.595 7.726,-7.726 V 24.5 c -2.815,0.131 -5.107,2.423 -5.238,5.238 z"
       id="path9" />
  </g>
  <defs
     id="defs10">
    <clipPath
       id="a">
      <path
         fill="#ffffff"
         d="M 0,0 H 77 V 60 H 0 Z"
         id="path10" />
    </clipPath>
  </defs>
</svg>
